<svg width="41" height="41" viewBox="0 0 41 41" fill="none" xmlns="http://www.w3.org/2000/svg">
<path d="M10.2498 32.4583C10.2498 34.3375 11.7873 35.875 13.6665 35.875H27.3332C29.2123 35.875 30.7498 34.3375 30.7498 32.4583V15.375C30.7498 13.4958 29.2123 11.9583 27.3332 11.9583H13.6665C11.7873 11.9583 10.2498 13.4958 10.2498 15.375V32.4583ZM30.7498 6.83333H26.479L25.2661 5.62042C24.9586 5.31292 24.5144 5.125 24.0703 5.125H16.9294C16.4853 5.125 16.0411 5.31292 15.7336 5.62042L14.5207 6.83333H10.2498C9.31025 6.83333 8.5415 7.60208 8.5415 8.54167C8.5415 9.48125 9.31025 10.25 10.2498 10.25H30.7498C31.6894 10.25 32.4582 9.48125 32.4582 8.54167C32.4582 7.60208 31.6894 6.83333 30.7498 6.83333Z" fill="#A32020"/>
</svg>
