<svg width="31" height="30" viewBox="0 0 31 30" fill="none" xmlns="http://www.w3.org/2000/svg">
<path d="M25.95 22.35C26.55 21.3 27 20.1 27 18.75C27 15 24 12 20.25 12C16.5 12 13.5 15 13.5 18.75C13.5 22.5 16.5 25.5 20.25 25.5C21.6 25.5 22.8 25.05 23.85 24.45L28.65 29.25L30.75 27.15L25.95 22.35ZM20.25 22.5C18.15 22.5 16.5 20.85 16.5 18.75C16.5 16.65 18.15 15 20.25 15C22.35 15 24 16.65 24 18.75C24 20.85 22.35 22.5 20.25 22.5ZM15 27V30C6.72 30 0 23.28 0 15C0 6.72 6.72 0 15 0C22.26 0 28.305 5.16 29.7 12H26.595C25.635 8.31 22.995 5.295 19.5 3.885V4.5C19.5 6.15 18.15 7.5 16.5 7.5H13.5V10.5C13.5 11.325 12.825 12 12 12H9V15H12V19.5H10.5L3.315 12.315C3.12 13.185 3 14.07 3 15C3 21.615 8.385 27 15 27Z" fill="white"/>
</svg>
