<svg width="41" height="41" viewBox="0 0 41 41" fill="none" xmlns="http://www.w3.org/2000/svg">
<path d="M20.4998 3.41667C11.0698 3.41667 3.4165 11.07 3.4165 20.5C3.4165 29.93 11.0698 37.5833 20.4998 37.5833C29.9298 37.5833 37.5832 29.93 37.5832 20.5C37.5832 11.07 29.9298 3.41667 20.4998 3.41667ZM20.4998 34.1667C12.9661 34.1667 6.83317 28.0338 6.83317 20.5C6.83317 12.9663 12.9661 6.83334 20.4998 6.83334C28.0336 6.83334 34.1665 12.9663 34.1665 20.5C34.1665 28.0338 28.0336 34.1667 20.4998 34.1667ZM16.229 28.1875L28.1873 20.5L16.229 12.8125V28.1875Z" fill="#C4C4C4"/>
</svg>
