<svg width="41" height="41" viewBox="0 0 41 41" fill="none" xmlns="http://www.w3.org/2000/svg">
<path d="M27.9167 14.25H14.25V27.9167H27.9167V14.25Z" fill="white"/>
<path d="M21.0833 4C11.6533 4 4 11.6533 4 21.0833C4 30.5133 11.6533 38.1667 21.0833 38.1667C30.5133 38.1667 38.1667 30.5133 38.1667 21.0833C38.1667 11.6533 30.5133 4 21.0833 4ZM21.0833 34.75C13.5496 34.75 7.41667 28.6171 7.41667 21.0833C7.41667 13.5496 13.5496 7.41667 21.0833 7.41667C28.6171 7.41667 34.75 13.5496 34.75 21.0833C34.75 28.6171 28.6171 34.75 21.0833 34.75Z" fill="white"/>
</svg>
