<svg width="36" height="36" viewBox="0 0 36 36" fill="none" xmlns="http://www.w3.org/2000/svg">
<path d="M22.6055 1.515H13.6055V4.515H22.6055V1.515ZM16.6055 21.015H19.6055V12.015H16.6055V21.015ZM28.6505 11.085L30.7805 8.955C30.1355 8.19 29.4305 7.47 28.6655 6.84L26.5355 8.97C24.2105 7.11 21.2855 6 18.1055 6C10.6505 6 4.60547 12.045 4.60547 19.5C4.60547 26.955 10.6355 33 18.1055 33C25.5755 33 31.6055 26.955 31.6055 19.5C31.6055 16.335 30.4955 13.41 28.6505 11.085ZM18.1055 30.015C12.3005 30.015 7.60547 25.32 7.60547 19.515C7.60547 13.71 12.3005 9.015 18.1055 9.015C23.9105 9.015 28.6055 13.71 28.6055 19.515C28.6055 25.32 23.9105 30.015 18.1055 30.015Z" fill="#A32020"/>
</svg>
