<svg width="124" height="124" viewBox="0 0 124 124" fill="none" xmlns="http://www.w3.org/2000/svg">
<path d="M107.098 88.7929C109.164 85.1762 110.714 81.0429 110.714 76.3929C110.714 63.4762 100.381 53.1429 87.4644 53.1429C74.5477 53.1429 64.2144 63.4762 64.2144 76.3929C64.2144 89.3095 74.5477 99.6429 87.4644 99.6429C92.1144 99.6429 96.2477 98.0929 99.8644 96.0262L116.398 112.56L123.631 105.326L107.098 88.7929ZM87.4644 89.3095C80.231 89.3095 74.5477 83.6262 74.5477 76.3929C74.5477 69.1595 80.231 63.4762 87.4644 63.4762C94.6977 63.4762 100.381 69.1595 100.381 76.3929C100.381 83.6262 94.6977 89.3095 87.4644 89.3095ZM69.381 104.81V115.143C40.861 115.143 17.7144 91.9962 17.7144 63.4762C17.7144 34.9562 40.861 11.8095 69.381 11.8095C94.3877 11.8095 115.209 29.5829 120.014 53.1429H109.319C106.013 40.4329 96.9194 30.0479 84.881 25.1912V27.3095C84.881 32.9929 80.231 37.6429 74.5477 37.6429H64.2144V47.9762C64.2144 50.8179 61.8894 53.1429 59.0477 53.1429H48.7144V63.4762H59.0477V78.9762H53.881L29.1327 54.2279C28.461 57.2245 28.0477 60.2729 28.0477 63.4762C28.0477 86.2612 46.596 104.81 69.381 104.81Z" fill="white"/>
</svg>
