<svg width="124" height="124" viewBox="0 0 124 124" fill="none" xmlns="http://www.w3.org/2000/svg">
<path d="M94.6532 22.01C87.0066 15.7583 77.5516 11.625 67.1666 10.5916V21.0283C74.7099 21.9583 81.5816 24.955 87.3166 29.3983L94.6532 22.01ZM102.972 56.8333H113.408C112.375 46.4483 108.242 36.9933 101.99 29.3466L94.6016 36.6833C99.0449 42.4183 102.042 49.29 102.972 56.8333ZM94.6016 87.3166L101.99 94.705C108.242 87.0583 112.375 77.5516 113.408 67.2183H102.972C102.042 74.71 99.0449 81.5816 94.6016 87.3166ZM67.1666 102.972V113.408C77.5516 112.375 87.0066 108.242 94.6532 101.99L87.2649 94.6016C81.5816 99.045 74.7099 102.042 67.1666 102.972ZM80.5482 54.715L67.1666 68.045V36.1666H56.8333V68.045L43.4516 54.6633L36.1666 62L61.9999 87.8333L87.8333 62L80.5482 54.715ZM56.8333 102.972V113.408C30.7416 110.825 10.3333 88.815 10.3333 62C10.3333 35.185 30.7416 13.175 56.8333 10.5916V21.0283C36.4249 23.56 20.6666 40.92 20.6666 62C20.6666 83.08 36.4249 100.44 56.8333 102.972Z" fill="white"/>
</svg>
