<svg width="41" height="41" viewBox="0 0 41 41" fill="none" xmlns="http://www.w3.org/2000/svg">
<path d="M38.3864 8.88335C37.5835 8.47335 36.7464 8.13169 35.8752 7.84127V28.3925C33.9277 27.6921 31.9289 27.3334 29.896 27.3334C26.6502 27.3334 23.4385 28.2558 20.5002 30.0325V9.36169C17.7327 7.77294 14.5381 6.83335 11.1043 6.83335C8.04641 6.83335 5.15933 7.58502 2.61391 8.88335C2.05016 9.15669 1.7085 9.7546 1.7085 10.3867V31.0233C1.7085 32.0142 2.51141 32.7146 3.41683 32.7146C3.69016 32.7146 3.9635 32.6463 4.23683 32.5096C6.30391 31.4334 8.62725 30.75 11.1043 30.75C14.6406 30.75 17.9035 32.1509 20.5002 34.1667C23.0968 32.1509 26.3597 30.75 29.896 30.75C32.3731 30.75 34.6964 31.4334 36.7635 32.5267C37.0368 32.6634 37.3102 32.7317 37.5835 32.7317C38.4718 32.7317 39.2918 32.0313 39.2918 31.0404V10.3867C39.2918 9.7546 38.9502 9.15669 38.3864 8.88335ZM17.0835 28.3925C15.136 27.6921 13.1372 27.3334 11.1043 27.3334C9.07141 27.3334 7.07266 27.6921 5.12516 28.3925V11.4629C7.02141 10.66 9.02016 10.25 11.1043 10.25C13.1543 10.25 15.1872 10.6771 17.0835 11.48V28.3925ZM32.4585 0.854187L23.9168 9.39585V25.625L32.4585 17.9375V0.854187Z" fill="white"/>
</svg>
