<svg width="64" height="62" viewBox="0 0 64 62" fill="none" xmlns="http://www.w3.org/2000/svg">
<rect width="64" height="62" rx="12" fill="black"/>
<path d="M36.6502 6L30.0802 19.69L24.7802 10.17C24.7802 10.17 12.0002 22.29 12.0002 36.17C11.9807 40.8165 13.5725 45.3261 16.5044 48.9308C19.4363 52.5356 23.5271 55.0126 28.0802 55.94C26.6971 53.9441 25.9099 51.5962 25.8102 49.17C25.8102 43.4 32.0802 38.72 32.0802 38.72C32.0802 38.72 38.3502 43.4 38.3502 49.17C38.2505 51.5962 37.4632 53.9441 36.0802 55.94C40.6033 54.9995 44.6641 52.5288 47.5784 48.9441C50.4928 45.3594 52.0826 40.8799 52.0802 36.26C52.1702 19.67 36.6502 6 36.6502 6Z" fill="#A32020" stroke="white" stroke-linecap="round" stroke-linejoin="round"/>
</svg>
